<svg xmlns="http://www.w3.org/2000/svg" viewBox="0 0 800 600">
    <!-- Background -->
    <rect width="800" height="600" fill="#f8f9fa"/>
    
    <!-- Flow Chart Title -->
    <text x="400" y="40" text-anchor="middle" font-size="24" fill="#2c3e50">Implementation Process Flow</text>
    
    <!-- Process Boxes and Arrows -->
    <!-- Initial Assessment -->
    <rect x="300" y="80" width="200" height="60" rx="10" fill="#3498db"/>
    <text x="400" y="115" text-anchor="middle" fill="white" font-size="16">Initial Assessment</text>
    <path d="M400 140 L400 180" stroke="#2c3e50" stroke-width="2" marker-end="url(#arrowhead)"/>
    
    <!-- Gap Analysis -->
    <rect x="300" y="180" width="200" height="60" rx="10" fill="#e74c3c"/>
    <text x="400" y="215" text-anchor="middle" fill="white" font-size="16">Gap Analysis</text>
    <path d="M400 240 L400 280" stroke="#2c3e50" stroke-width="2" marker-end="url(#arrowhead)"/>
    
    <!-- Strategy Development -->
    <rect x="300" y="280" width="200" height="60" rx="10" fill="#27ae60"/>
    <text x="400" y="315" text-anchor="middle" fill="white" font-size="16">Strategy Development</text>
    <path d="M400 340 L400 380" stroke="#2c3e50" stroke-width="2" marker-end="url(#arrowhead)"/>
    
    <!-- Implementation -->
    <rect x="300" y="380" width="200" height="60" rx="10" fill="#f1c40f"/>
    <text x="400" y="415" text-anchor="middle" fill="white" font-size="16">Implementation</text>
    <path d="M400 440 L400 480" stroke="#2c3e50" stroke-width="2" marker-end="url(#arrowhead)"/>
    
    <!-- Monitoring & Evaluation -->
    <rect x="300" y="480" width="200" height="60" rx="10" fill="#9b59b6"/>
    <text x="400" y="515" text-anchor="middle" fill="white" font-size="16">Monitoring & Evaluation</text>
    
    <!-- Feedback Loop -->
    <path d="M500 510 C600 510, 600 110, 500 110" fill="none" stroke="#2c3e50" stroke-width="2" stroke-dasharray="5,5" marker-end="url(#arrowhead)"/>
    
    <!-- Arrow Marker Definition -->
    <defs>
        <marker id="arrowhead" markerWidth="10" markerHeight="7" refX="9" refY="3.5" orient="auto">
            <polygon points="0 0, 10 3.5, 0 7" fill="#2c3e50"/>
        </marker>
    </defs>
    
    <!-- Feedback Loop Label -->
    <text x="620" y="300" text-anchor="middle" fill="#2c3e50" font-size="14" transform="rotate(90 620 300)">Continuous Improvement Loop</text>
</svg>
